<svg width="374" height="115" viewBox="0 0 374 115" fill="none" xmlns="http://www.w3.org/2000/svg">
<path fill-rule="evenodd" clip-rule="evenodd" d="M56 106.389C46.3503 106.389 39.5228 106.384 34.1776 105.965C28.9103 105.552 25.6847 104.771 23.1421 103.537C17.3935 100.749 12.751 96.1065 9.96272 90.3579C8.72948 87.8153 7.94761 84.5897 7.53495 79.3224C7.11619 73.9772 7.11111 67.1497 7.11111 57.5C7.11111 47.8503 7.11619 41.0228 7.53495 35.6776C7.94761 30.4103 8.72948 27.1847 9.96272 24.6421C12.751 18.8935 17.3935 14.251 23.1421 11.4627C25.6847 10.2295 28.9103 9.44761 34.1776 9.03495C36.4251 8.85887 38.9348 8.75593 41.8061 8.69575L44.1179 15.6309C44.8438 17.8088 46.8819 19.2777 49.1775 19.2777H62.8227C65.1184 19.2777 67.1564 17.8088 67.8824 15.6309L70.1941 8.69576C73.0653 8.75594 75.5749 8.85888 77.8224 9.03495C83.0897 9.44761 86.3153 10.2295 88.8579 11.4627C94.6065 14.251 99.249 18.8935 102.037 24.6421C103.271 27.1847 104.052 30.4103 104.465 35.6776C104.884 41.0228 104.889 47.8503 104.889 57.5C104.889 67.1497 104.884 73.9772 104.465 79.3224C104.052 84.5897 103.271 87.8153 102.037 90.3579C99.249 96.1065 94.6065 100.749 88.8579 103.537C86.3153 104.771 83.0897 105.552 77.8224 105.965C72.4772 106.384 65.6497 106.389 56 106.389ZM0 57.5C0 38.4252 0 28.8877 3.56451 21.5388C7.04987 14.353 12.853 8.54987 20.0388 5.06451C27.3877 1.5 36.9252 1.5 56 1.5C75.0748 1.5 84.6123 1.5 91.9612 5.06451C99.147 8.54987 104.95 14.353 108.435 21.5388C112 28.8877 112 38.4252 112 57.5C112 76.5748 112 86.1123 108.435 93.4612C104.95 100.647 99.147 106.45 91.9612 109.935C84.6123 113.5 75.0748 113.5 56 113.5C36.9252 113.5 27.3877 113.5 20.0388 109.935C12.853 106.45 7.04987 100.647 3.56451 93.4612C0 86.1123 0 76.5748 0 57.5ZM33.0257 53.446C32.889 54.1329 32.889 54.959 32.889 56.6111V77.9444C32.889 79.5965 32.889 80.4226 33.0257 81.1095C33.5868 83.9304 35.7919 86.1356 38.6128 86.6967C39.2997 86.8333 40.1258 86.8333 41.7779 86.8333C43.43 86.8333 44.2561 86.8333 44.943 86.6967C47.7639 86.1356 49.969 83.9304 50.5302 81.1095C50.6668 80.4226 50.6668 79.5965 50.6668 77.9444V56.6111C50.6668 54.959 50.6668 54.1329 50.5302 53.446C49.969 50.6251 47.7639 48.42 44.943 47.8588C44.2561 47.7222 43.43 47.7222 41.7779 47.7222C40.1258 47.7222 39.2997 47.7222 38.6128 47.8588C35.7919 48.42 33.5868 50.6251 33.0257 53.446ZM60.6724 56.6111C60.6724 54.959 60.6724 54.1329 60.8091 53.446C61.3702 50.6251 63.5753 48.42 66.3962 47.8588C67.0832 47.7222 67.9092 47.7222 69.5613 47.7222C71.2134 47.7222 72.0395 47.7222 72.7264 47.8588C75.5473 48.42 77.7524 50.6251 78.3136 53.446C78.4502 54.1329 78.4502 54.959 78.4502 56.6111V77.9444C78.4502 79.5965 78.4502 80.4226 78.3136 81.1095C77.7524 83.9304 75.5473 86.1356 72.7264 86.6967C72.0395 86.8333 71.2134 86.8333 69.5613 86.8333C67.9092 86.8333 67.0832 86.8333 66.3962 86.6967C63.5753 86.1356 61.3702 83.9304 60.8091 81.1095C60.6724 80.4226 60.6724 79.5965 60.6724 77.9444V56.6111Z" fill="#06b6d4"/>
<path d="M174.208 23.536C174.208 26.1387 173.611 28.528 172.416 30.704C171.221 32.8373 169.387 34.5653 166.912 35.888C164.437 37.2107 161.365 37.872 157.696 37.872H150.912V54H139.968V9.072H157.696C161.28 9.072 164.309 9.69066 166.784 10.928C169.259 12.1653 171.115 13.872 172.352 16.048C173.589 18.224 174.208 20.72 174.208 23.536ZM156.864 29.168C158.955 29.168 160.512 28.6773 161.536 27.696C162.56 26.7147 163.072 25.328 163.072 23.536C163.072 21.744 162.56 20.3573 161.536 19.376C160.512 18.3947 158.955 17.904 156.864 17.904H150.912V29.168H156.864ZM202.154 54.448C197.93 54.448 194.047 53.4667 190.506 51.504C187.007 49.5413 184.212 46.8107 182.122 43.312C180.073 39.7707 179.049 35.8027 179.049 31.408C179.049 27.0133 180.073 23.0667 182.122 19.568C184.212 16.0693 187.007 13.3387 190.506 11.376C194.047 9.41333 197.93 8.432 202.154 8.432C206.378 8.432 210.239 9.41333 213.738 11.376C217.279 13.3387 220.052 16.0693 222.058 19.568C224.106 23.0667 225.13 27.0133 225.13 31.408C225.13 35.8027 224.106 39.7707 222.058 43.312C220.01 46.8107 217.236 49.5413 213.738 51.504C210.239 53.4667 206.378 54.448 202.154 54.448ZM202.154 44.464C205.738 44.464 208.596 43.2693 210.729 40.88C212.906 38.4907 213.994 35.3333 213.994 31.408C213.994 27.44 212.906 24.2827 210.729 21.936C208.596 19.5467 205.738 18.352 202.154 18.352C198.527 18.352 195.626 19.5253 193.45 21.872C191.316 24.2187 190.25 27.3973 190.25 31.408C190.25 35.376 191.316 38.5547 193.45 40.944C195.626 43.2907 198.527 44.464 202.154 44.464ZM294.042 9.072L282.33 54H269.082L261.914 24.432L254.49 54H241.242L229.85 9.072H241.562L248.026 41.776L256.026 9.072H268.058L275.738 41.776L282.266 9.072H294.042ZM311.475 17.84V26.928H326.131V35.376H311.475V45.232H328.051V54H300.531V9.072H328.051V17.84H311.475ZM359.068 54L349.724 37.04H347.1V54H336.156V9.072H354.524C358.065 9.072 361.073 9.69066 363.548 10.928C366.065 12.1653 367.942 13.872 369.18 16.048C370.417 18.1813 371.036 20.5707 371.036 23.216C371.036 26.2027 370.182 28.8693 368.476 31.216C366.812 33.5627 364.337 35.2267 361.052 36.208L371.42 54H359.068ZM347.1 29.296H353.884C355.889 29.296 357.382 28.8053 358.364 27.824C359.388 26.8427 359.9 25.456 359.9 23.664C359.9 21.9573 359.388 20.6133 358.364 19.632C357.382 18.6507 355.889 18.16 353.884 18.16H347.1V29.296Z" fill="#06b6d4"/>
<path d="M164.236 80.364C164.236 83.38 163.196 85.8933 161.116 87.904C159.071 89.88 155.933 90.868 151.704 90.868H144.736V106H140.004V69.756H151.704C155.795 69.756 158.897 70.744 161.012 72.72C163.161 74.696 164.236 77.244 164.236 80.364ZM151.704 86.968C154.339 86.968 156.28 86.396 157.528 85.252C158.776 84.108 159.4 82.4787 159.4 80.364C159.4 75.892 156.835 73.656 151.704 73.656H144.736V86.968H151.704ZM178.849 102.152H191.537V106H174.117V69.756H178.849V102.152ZM221.987 97.94H206.179L203.267 106H198.275L211.379 69.964H216.839L229.891 106H224.899L221.987 97.94ZM220.635 94.092L214.083 75.788L207.531 94.092H220.635ZM264.978 69.756L253.174 92.324V106H248.442V92.324L236.586 69.756H241.838L250.782 88.112L259.726 69.756H264.978Z" fill="white"/>
</svg>
