<svg width="112" height="112" viewBox="0 0 112 112" fill="none" xmlns="http://www.w3.org/2000/svg">
<path fill-rule="evenodd" clip-rule="evenodd" d="M56 104.889C46.3503 104.889 39.5228 104.884 34.1776 104.465C28.9103 104.052 25.6847 103.271 23.1421 102.037C17.3935 99.249 12.751 94.6065 9.96272 88.8579C8.72948 86.3153 7.94761 83.0897 7.53495 77.8224C7.11619 72.4772 7.11111 65.6497 7.11111 56C7.11111 46.3503 7.11619 39.5228 7.53495 34.1776C7.94761 28.9103 8.72948 25.6847 9.96272 23.1421C12.751 17.3935 17.3935 12.751 23.1421 9.96272C25.6847 8.72948 28.9103 7.94761 34.1776 7.53495C36.4251 7.35887 38.9348 7.25593 41.8061 7.19575L44.1179 14.1309C44.8438 16.3088 46.8819 17.7777 49.1775 17.7777H62.8227C65.1184 17.7777 67.1564 16.3088 67.8824 14.1309L70.1941 7.19576C73.0653 7.25594 75.5749 7.35888 77.8224 7.53495C83.0897 7.94761 86.3153 8.72948 88.8579 9.96272C94.6065 12.751 99.249 17.3935 102.037 23.1421C103.271 25.6847 104.052 28.9103 104.465 34.1776C104.884 39.5228 104.889 46.3503 104.889 56C104.889 65.6497 104.884 72.4772 104.465 77.8224C104.052 83.0897 103.271 86.3153 102.037 88.8579C99.249 94.6065 94.6065 99.249 88.8579 102.037C86.3153 103.271 83.0897 104.052 77.8224 104.465C72.4772 104.884 65.6497 104.889 56 104.889ZM0 56C0 36.9252 0 27.3877 3.56451 20.0388C7.04987 12.853 12.853 7.04987 20.0388 3.56451C27.3877 0 36.9252 0 56 0C75.0748 0 84.6123 0 91.9612 3.56451C99.147 7.04987 104.95 12.853 108.435 20.0388C112 27.3877 112 36.9252 112 56C112 75.0748 112 84.6123 108.435 91.9612C104.95 99.147 99.147 104.95 91.9612 108.435C84.6123 112 75.0748 112 56 112C36.9252 112 27.3877 112 20.0388 108.435C12.853 104.95 7.04987 99.147 3.56451 91.9612C0 84.6123 0 75.0748 0 56ZM33.0257 51.946C32.889 52.6329 32.889 53.459 32.889 55.1111V76.4444C32.889 78.0965 32.889 78.9226 33.0257 79.6095C33.5868 82.4304 35.7919 84.6356 38.6128 85.1967C39.2997 85.3333 40.1258 85.3333 41.7779 85.3333C43.43 85.3333 44.2561 85.3333 44.943 85.1967C47.7639 84.6356 49.969 82.4304 50.5302 79.6095C50.6668 78.9226 50.6668 78.0965 50.6668 76.4444V55.1111C50.6668 53.459 50.6668 52.6329 50.5302 51.946C49.969 49.1251 47.7639 46.92 44.943 46.3588C44.2561 46.2222 43.43 46.2222 41.7779 46.2222C40.1258 46.2222 39.2997 46.2222 38.6128 46.3588C35.7919 46.92 33.5868 49.1251 33.0257 51.946ZM60.6724 55.1111C60.6724 53.459 60.6724 52.6329 60.8091 51.946C61.3702 49.1251 63.5753 46.92 66.3962 46.3588C67.0832 46.2222 67.9092 46.2222 69.5613 46.2222C71.2134 46.2222 72.0395 46.2222 72.7264 46.3588C75.5473 46.92 77.7524 49.1251 78.3136 51.946C78.4502 52.6329 78.4502 53.459 78.4502 55.1111V76.4444C78.4502 78.0965 78.4502 78.9226 78.3136 79.6095C77.7524 82.4304 75.5473 84.6356 72.7264 85.1967C72.0395 85.3333 71.2134 85.3333 69.5613 85.3333C67.9092 85.3333 67.0832 85.3333 66.3962 85.1967C63.5753 84.6356 61.3702 82.4304 60.8091 79.6095C60.6724 78.9226 60.6724 78.0965 60.6724 76.4444V55.1111Z" fill="#0EA5E9"/>
</svg>
