<svg width="88" height="88" viewBox="0 0 88 88" fill="none" xmlns="http://www.w3.org/2000/svg">
<path fill-rule="evenodd" clip-rule="evenodd" d="M0 44C0 19.6995 19.6995 0 44 0C68.3005 0 88 19.6995 88 44C88 68.3005 68.3005 88 44 88C19.6995 88 0 68.3005 0 44ZM44 26C39.0294 26 35 30.0294 35 35C35 39.9706 39.0294 44 44 44C48.9706 44 53 39.9706 53 35C53 30.0294 48.9706 26 44 26ZM52.1922 45.7311C55.4187 43.2642 57.5 39.3752 57.5 35C57.5 27.5442 51.4558 21.5 44 21.5C36.5442 21.5 30.5 27.5442 30.5 35C30.5 39.3752 32.5813 43.2642 35.8078 45.7311C33.5455 46.7319 31.4641 48.148 29.6811 49.9311C25.8835 53.7287 23.75 58.8794 23.75 64.25C23.75 65.4926 24.7574 66.5 26 66.5C27.2426 66.5 28.25 65.4926 28.25 64.25C28.25 60.0728 29.9094 56.0668 32.8631 53.1131C35.8168 50.1594 39.8228 48.5 44 48.5C48.1772 48.5 52.1832 50.1594 55.1369 53.1131C58.0906 56.0668 59.75 60.0728 59.75 64.25C59.75 65.4926 60.7574 66.5 62 66.5C63.2426 66.5 64.25 65.4926 64.25 64.25C64.25 58.8794 62.1165 53.7287 58.3189 49.9311C56.5359 48.148 54.4545 46.7319 52.1922 45.7311Z" fill="#BFDBFE"/>
</svg>
